<svg width="22" height="16" viewBox="0 0 22 16" fill="none" xmlns="http://www.w3.org/2000/svg">
<path d="M5.5 15.9C3.98333 15.9 2.68733 15.375 1.612 14.325C0.536667 13.275 -0.000666047 11.9917 6.19579e-07 10.475C6.19579e-07 9.175 0.391667 8.01667 1.175 7C1.95833 5.98333 2.98333 5.33333 4.25 5.05C4.53333 3.85 5.24167 2.70833 6.375 1.625C7.50833 0.541667 8.71667 0 10 0C10.55 0 11.021 0.196 11.413 0.588C11.805 0.98 12.0007 1.45067 12 2V8.05L13.6 6.5L15 7.9L11 11.9L7 7.9L8.4 6.5L10 8.05V2C8.73333 2.23333 7.75 2.846 7.05 3.838C6.35 4.83 6 5.85067 6 6.9H5.5C4.53333 6.9 3.70833 7.24167 3.025 7.925C2.34167 8.60833 2 9.43333 2 10.4C2 11.3667 2.34167 12.1917 3.025 12.875C3.70833 13.5583 4.53333 13.9 5.5 13.9H17.5C18.2 13.9 18.7917 13.6583 19.275 13.175C19.7583 12.6917 20 12.1 20 11.4C20 10.7 19.7583 10.1083 19.275 9.625C18.7917 9.14167 18.2 8.9 17.5 8.9H16V6.9C16 6.1 15.8167 5.354 15.45 4.662C15.0833 3.97 14.6 3.38267 14 2.9V0.575C15.2333 1.15833 16.2083 2.021 16.925 3.163C17.6417 4.305 18 5.55067 18 6.9C19.15 7.03333 20.1043 7.52933 20.863 8.388C21.6217 9.24667 22.0007 10.2507 22 11.4C22 12.65 21.5623 13.7127 20.687 14.588C19.8117 15.4633 18.7493 15.9007 17.5 15.9H5.5Z" fill="#8692A6"/>
</svg>
