<svg width="22" height="16" viewBox="0 0 22 16" fill="none" xmlns="http://www.w3.org/2000/svg">
<path d="M19.5556 0H1.77778C0.808889 0.0355556 0.0355556 0.808889 0 1.77778V14.2222C0.0355556 15.1911 0.808889 15.9644 1.77778 16H19.5556C20.5244 15.9644 21.2978 15.1911 21.3333 14.2222V1.77778C21.317 1.31149 21.1244 0.868749 20.7945 0.538831C20.4646 0.208913 20.0218 0.0163604 19.5556 0ZM19.5556 14.2222H1.77778V1.77778H19.5556V14.2222ZM12.4444 12.4444V11.3333C12.4444 9.85778 9.47556 9.11111 8 9.11111C6.52444 9.11111 3.55556 9.85778 3.55556 11.3333V12.4444H12.4444ZM8 3.55556C7.41063 3.55556 6.8454 3.78968 6.42865 4.20643C6.0119 4.62318 5.77778 5.18841 5.77778 5.77778C5.77778 6.0696 5.83526 6.35857 5.94693 6.62819C6.05861 6.8978 6.2223 7.14277 6.42865 7.34913C6.8454 7.76587 7.41063 8 8 8C8.29183 8 8.5808 7.94252 8.85041 7.83084C9.12002 7.71917 9.365 7.55548 9.57135 7.34913C9.7777 7.14277 9.94139 6.8978 10.0531 6.62819C10.1647 6.35857 10.2222 6.0696 10.2222 5.77778C10.2222 5.48595 10.1647 5.19698 10.0531 4.92737C9.94139 4.65776 9.7777 4.41278 9.57135 4.20643C9.365 4.00008 9.12002 3.83639 8.85041 3.72471C8.5808 3.61303 8.29183 3.55556 8 3.55556ZM12.4444 3.55556V4.44444H17.7778V3.55556H12.4444ZM12.4444 5.33333V6.22222H17.7778V5.33333H12.4444ZM12.4444 7.11111V8H16V7.11111H12.4444Z" fill="#035762"/>
</svg>
