<svg width="390" height="246" viewBox="0 0 390 246" fill="none" xmlns="http://www.w3.org/2000/svg" xmlns:xlink="http://www.w3.org/1999/xlink">
<g clip-path="url(#clip0_1_33)">
<rect width="390" height="245.649" rx="10" fill="#035762"/>
<circle cx="341.943" cy="4.4572" r="18.9429" fill="#29898A"/>
<circle cx="44.1286" cy="29.1286" r="6.12857" fill="#077D88"/>
<circle cx="277.736" cy="107.25" r="1.39286" fill="#AB41FF"/>
<circle cx="352.95" cy="45.9643" r="1.39286" fill="#FFD541"/>
<circle cx="327.879" cy="189.15" r="1.39286" fill="#418DFF"/>
<circle opacity="0.3" cx="284.143" cy="217.286" r="8.35714" fill="#81FFE8"/>
<circle cx="356.929" cy="181.929" r="13.9286" fill="#FFB340"/>
<circle cx="387.771" cy="179.4" r="6.12857" fill="#077A89"/>
<rect x="311.357" y="18" width="16.7143" height="16.7143" rx="3.34286" transform="rotate(30 311.357 18)" fill="#4B6FF0"/>
<rect opacity="0.5" x="355.257" y="191.519" width="16.7143" height="16.7143" rx="3.34286" transform="rotate(-45 355.257 191.519)" fill="#BDFF00"/>
<rect x="329" y="223" width="3" height="3" fill="url(#pattern0_1_33)"/>
<g filter="url(#filter0_d_1_33)">
<circle cx="38" cy="133" r="21.5" stroke="white" shape-rendering="crispEdges"/>
</g>
<g filter="url(#filter1_d_1_33)">
<circle cx="143" cy="133" r="22.5" stroke="white" shape-rendering="crispEdges"/>
</g>
<g filter="url(#filter2_d_1_33)">
<circle cx="248" cy="133" r="22" fill="white"/>
</g>
<g filter="url(#filter3_d_1_33)">
<circle cx="353" cy="133" r="22.5" stroke="white" shape-rendering="crispEdges"/>
</g>
<path d="M37.6154 140.231V138.538H43.5385V126.692H37.6154V125H43.5385C44.0038 125 44.4024 125.166 44.7341 125.497C45.0652 125.828 45.2308 126.227 45.2308 126.692V138.538C45.2308 139.004 45.0652 139.402 44.7341 139.734C44.4024 140.065 44.0038 140.231 43.5385 140.231H37.6154ZM35.9231 136.846L34.7596 135.619L36.9173 133.462H30V131.769H36.9173L34.7596 129.612L35.9231 128.385L40.1538 132.615L35.9231 136.846Z" fill="white"/>
<path d="M143.996 135.795C143.996 136.571 143.374 137.194 142.597 137.194C142.226 137.194 141.87 137.047 141.608 136.784C141.345 136.522 141.198 136.166 141.198 135.795C141.198 135.018 141.82 134.396 142.597 134.396C142.968 134.396 143.324 134.543 143.587 134.805C143.849 135.068 143.996 135.424 143.996 135.795ZM143.36 139.293C143.444 139.797 143.619 140.266 143.863 140.692H138.399C138.028 140.692 137.672 140.545 137.41 140.282C137.147 140.02 137 139.664 137 139.293V132.297C137 131.52 137.623 130.897 138.399 130.897H139.099V129.498C139.099 127.567 140.666 126 142.597 126C144.528 126 146.095 127.567 146.095 129.498V130.897H146.795C147.166 130.897 147.522 131.045 147.784 131.307C148.047 131.57 148.194 131.926 148.194 132.297V134.459C147.963 134.424 147.732 134.396 147.495 134.396C147.257 134.396 147.026 134.424 146.795 134.459V132.297H138.399V139.293H143.36ZM140.498 130.897H144.696V129.498C144.696 128.337 143.758 127.399 142.597 127.399C141.436 127.399 140.498 128.337 140.498 129.498V130.897ZM149.132 136.383L146.62 138.894L145.508 137.782L144.696 138.593L146.62 140.692L149.943 137.369L149.132 136.383Z" fill="white"/>
<line x1="121" y1="133.5" x2="59" y2="133.5" stroke="white"/>
<line x1="226" y1="133.5" x2="166" y2="133.5" stroke="white"/>
<line x1="331" y1="133.5" x2="271" y2="133.5" stroke="white"/>
<path fill-rule="evenodd" clip-rule="evenodd" d="M242.348 135.598C243.052 134.895 244.005 134.5 245 134.5H251C251.995 134.5 252.948 134.895 253.652 135.598C254.355 136.302 254.75 137.255 254.75 138.25V139.75C254.75 140.164 254.414 140.5 254 140.5C253.586 140.5 253.25 140.164 253.25 139.75V138.25C253.25 137.653 253.013 137.081 252.591 136.659C252.169 136.237 251.597 136 251 136H245C244.403 136 243.831 136.237 243.409 136.659C242.987 137.081 242.75 137.653 242.75 138.25V139.75C242.75 140.164 242.414 140.5 242 140.5C241.586 140.5 241.25 140.164 241.25 139.75V138.25C241.25 137.255 241.645 136.302 242.348 135.598Z" fill="#035762"/>
<path fill-rule="evenodd" clip-rule="evenodd" d="M248 127C246.757 127 245.75 128.007 245.75 129.25C245.75 130.493 246.757 131.5 248 131.5C249.243 131.5 250.25 130.493 250.25 129.25C250.25 128.007 249.243 127 248 127ZM244.25 129.25C244.25 127.179 245.929 125.5 248 125.5C250.071 125.5 251.75 127.179 251.75 129.25C251.75 131.321 250.071 133 248 133C245.929 133 244.25 131.321 244.25 129.25Z" fill="#035762"/>
<path d="M350.385 137.04L346.346 133.062L345 134.388L350.385 139.692L361.923 128.326L360.577 127L350.385 137.04Z" fill="#E9F0FC"/>
</g>
<defs>
<pattern id="pattern0_1_33" patternContentUnits="objectBoundingBox" width="1" height="1">
<use xlink:href="#image0_1_33" transform="scale(0.0004)"/>
</pattern>
<filter id="filter0_d_1_33" x="12" y="111" width="52" height="52" filterUnits="userSpaceOnUse" color-interpolation-filters="sRGB">
<feFlood flood-opacity="0" result="BackgroundImageFix"/>
<feColorMatrix in="SourceAlpha" type="matrix" values="0 0 0 0 0 0 0 0 0 0 0 0 0 0 0 0 0 0 127 0" result="hardAlpha"/>
<feOffset dy="4"/>
<feGaussianBlur stdDeviation="2"/>
<feComposite in2="hardAlpha" operator="out"/>
<feColorMatrix type="matrix" values="0 0 0 0 0 0 0 0 0 0 0 0 0 0 0 0 0 0 0.25 0"/>
<feBlend mode="normal" in2="BackgroundImageFix" result="effect1_dropShadow_1_33"/>
<feBlend mode="normal" in="SourceGraphic" in2="effect1_dropShadow_1_33" result="shape"/>
</filter>
<filter id="filter1_d_1_33" x="116" y="110" width="54" height="54" filterUnits="userSpaceOnUse" color-interpolation-filters="sRGB">
<feFlood flood-opacity="0" result="BackgroundImageFix"/>
<feColorMatrix in="SourceAlpha" type="matrix" values="0 0 0 0 0 0 0 0 0 0 0 0 0 0 0 0 0 0 127 0" result="hardAlpha"/>
<feOffset dy="4"/>
<feGaussianBlur stdDeviation="2"/>
<feComposite in2="hardAlpha" operator="out"/>
<feColorMatrix type="matrix" values="0 0 0 0 0 0 0 0 0 0 0 0 0 0 0 0 0 0 0.25 0"/>
<feBlend mode="normal" in2="BackgroundImageFix" result="effect1_dropShadow_1_33"/>
<feBlend mode="normal" in="SourceGraphic" in2="effect1_dropShadow_1_33" result="shape"/>
</filter>
<filter id="filter2_d_1_33" x="222" y="111" width="52" height="52" filterUnits="userSpaceOnUse" color-interpolation-filters="sRGB">
<feFlood flood-opacity="0" result="BackgroundImageFix"/>
<feColorMatrix in="SourceAlpha" type="matrix" values="0 0 0 0 0 0 0 0 0 0 0 0 0 0 0 0 0 0 127 0" result="hardAlpha"/>
<feOffset dy="4"/>
<feGaussianBlur stdDeviation="2"/>
<feComposite in2="hardAlpha" operator="out"/>
<feColorMatrix type="matrix" values="0 0 0 0 0 0 0 0 0 0 0 0 0 0 0 0 0 0 0.25 0"/>
<feBlend mode="normal" in2="BackgroundImageFix" result="effect1_dropShadow_1_33"/>
<feBlend mode="normal" in="SourceGraphic" in2="effect1_dropShadow_1_33" result="shape"/>
</filter>
<filter id="filter3_d_1_33" x="326" y="110" width="54" height="54" filterUnits="userSpaceOnUse" color-interpolation-filters="sRGB">
<feFlood flood-opacity="0" result="BackgroundImageFix"/>
<feColorMatrix in="SourceAlpha" type="matrix" values="0 0 0 0 0 0 0 0 0 0 0 0 0 0 0 0 0 0 127 0" result="hardAlpha"/>
<feOffset dy="4"/>
<feGaussianBlur stdDeviation="2"/>
<feComposite in2="hardAlpha" operator="out"/>
<feColorMatrix type="matrix" values="0 0 0 0 0 0 0 0 0 0 0 0 0 0 0 0 0 0 0.25 0"/>
<feBlend mode="normal" in2="BackgroundImageFix" result="effect1_dropShadow_1_33"/>
<feBlend mode="normal" in="SourceGraphic" in2="effect1_dropShadow_1_33" result="shape"/>
</filter>
<clipPath id="clip0_1_33">
<rect width="390" height="245.649" rx="10" fill="white"/>
</clipPath>
</defs>
</svg>
