<svg width="12" height="16" viewBox="0 0 12 16" fill="none" xmlns="http://www.w3.org/2000/svg">
<path d="M5.96394 7.37801C5.44048 7.37801 4.93845 7.17951 4.56831 6.82619C4.19816 6.47287 3.99021 5.99366 3.99021 5.49399C3.99021 4.99432 4.19816 4.51511 4.56831 4.16179C4.93845 3.80847 5.44048 3.60998 5.96394 3.60998C6.48741 3.60998 6.98943 3.80847 7.35958 4.16179C7.72973 4.51511 7.93767 4.99432 7.93767 5.49399C7.93767 5.7414 7.88662 5.98639 7.78743 6.21497C7.68824 6.44355 7.54286 6.65124 7.35958 6.82619C7.1763 7.00114 6.95872 7.13991 6.71926 7.23459C6.47979 7.32927 6.22314 7.37801 5.96394 7.37801ZM5.96394 0.21875C4.49824 0.21875 3.09257 0.774533 2.05616 1.76383C1.01975 2.75313 0.4375 4.09491 0.4375 5.49399C0.4375 9.45042 5.96394 15.2909 5.96394 15.2909C5.96394 15.2909 11.4904 9.45042 11.4904 5.49399C11.4904 4.09491 10.9081 2.75313 9.87173 1.76383C8.83532 0.774533 7.42965 0.21875 5.96394 0.21875Z" fill="#035762"/>
</svg>
