<svg width="280" height="270" viewBox="0 0 280 270" fill="none" xmlns="http://www.w3.org/2000/svg">
<path fill-rule="evenodd" clip-rule="evenodd" d="M-7.62957 -68.6443L-58.8443 -17.4296C-62.7607 -13.5132 -62.7607 -7.16345 -58.8443 -3.24705L-7.62958 47.9677C-3.71318 51.8841 2.63656 51.8841 6.55296 47.9677L57.7677 -3.24704C61.6841 -7.16344 61.6841 -13.5132 57.7677 -17.4296L6.55296 -68.6443C2.63656 -72.5607 -3.71318 -72.5607 -7.62957 -68.6443ZM-59.6322 -18.2175C-63.9838 -13.8659 -63.9838 -6.81068 -59.6322 -2.45913L-8.4175 48.7556C-4.06594 53.1072 2.98932 53.1072 7.34088 48.7556L58.5556 -2.45911C62.9072 -6.81068 62.9072 -13.8659 58.5556 -18.2175L7.34088 -69.4322C2.98933 -73.7838 -4.06593 -73.7838 -8.41749 -69.4322L-59.6322 -18.2175ZM-80.1181 3.8443L-131.333 55.059C-135.249 58.9754 -135.249 65.3252 -131.333 69.2416L-80.1181 120.456C-76.2017 124.373 -69.852 124.373 -65.9356 120.456L-14.7209 69.2416C-10.8045 65.3252 -10.8044 58.9754 -14.7208 55.059L-65.9356 3.8443C-69.852 -0.0721003 -76.2017 -0.0721055 -80.1181 3.8443ZM-132.121 54.2711C-136.472 58.6227 -136.472 65.6779 -132.121 70.0295L-80.906 121.244C-76.5545 125.596 -69.4992 125.596 -65.1477 121.244L-13.9329 70.0295C-9.58138 65.6779 -9.58137 58.6227 -13.9329 54.2711L-65.1477 3.05638C-69.4992 -1.29518 -76.5545 -1.29518 -80.906 3.05638L-132.121 54.2711ZM-7.62956 76.3327L-58.8443 127.547C-62.7607 131.464 -62.7607 137.814 -58.8443 141.73L-7.62956 192.945C-3.71317 196.861 2.63657 196.861 6.55297 192.945L57.7677 141.73C61.6841 137.814 61.6841 131.464 57.7677 127.547L6.55298 76.3328C2.63657 72.4164 -3.71316 72.4163 -7.62956 76.3327ZM-59.6322 126.76C-63.9838 131.111 -63.9838 138.166 -59.6322 142.518L-8.41748 193.733C-4.06593 198.084 2.98933 198.084 7.34089 193.733L58.5556 142.518C62.9072 138.166 62.9072 131.111 58.5556 126.76L7.3409 75.5448C2.98934 71.1933 -4.06593 71.1933 -8.41748 75.5448L-59.6322 126.76ZM13.6443 200.036L64.859 148.821C68.7754 144.905 75.1251 144.905 79.0415 148.821L130.256 200.036C134.173 203.952 134.173 210.302 130.256 214.219L79.0415 265.433C75.1251 269.35 68.7754 269.35 64.859 265.433L13.6443 214.219C9.72785 210.302 9.72786 203.952 13.6443 200.036ZM12.8563 215.007C8.50477 210.655 8.50478 203.6 12.8563 199.248L64.0711 148.033C68.4226 143.682 75.4779 143.682 79.8295 148.033L131.044 199.248C135.396 203.6 135.396 210.655 131.044 215.007L79.8295 266.221C75.4779 270.573 68.4226 270.573 64.0711 266.221L12.8563 215.007ZM13.6443 55.059L64.859 3.84427C68.7754 -0.0721222 75.1251 -0.0721222 79.0415 3.84428L130.256 55.059C134.173 58.9754 134.173 65.3252 130.256 69.2416L79.0415 120.456C75.1251 124.373 68.7754 124.373 64.859 120.456L13.6443 69.2416C9.72785 65.3251 9.72786 58.9754 13.6443 55.059ZM12.8563 70.0295C8.50478 65.6779 8.50478 58.6226 12.8563 54.2711L64.0711 3.05635C68.4226 -1.2952 75.4779 -1.2952 79.8295 3.05636L131.044 54.2711C135.396 58.6226 135.396 65.6779 131.044 70.0295L79.8294 121.244C75.4779 125.596 68.4226 125.596 64.0711 121.244L12.8563 70.0295ZM137.348 76.3327L86.1328 127.547C82.2164 131.464 82.2164 137.814 86.1328 141.73L137.348 192.945C141.264 196.861 147.614 196.861 151.53 192.945L202.745 141.73C206.661 137.814 206.661 131.464 202.745 127.548L151.53 76.3327C147.614 72.4164 141.264 72.4163 137.348 76.3327ZM85.3449 126.76C80.9933 131.111 80.9933 138.166 85.3449 142.518L136.56 193.733C140.911 198.084 147.966 198.084 152.318 193.733L203.533 142.518C207.884 138.166 207.884 131.111 203.533 126.76L152.318 75.5448C147.966 71.1933 140.911 71.1933 136.56 75.5448L85.3449 126.76ZM13.6443 -89.9181L64.859 -141.133C68.7754 -145.049 75.1251 -145.049 79.0415 -141.133L130.256 -89.9181C134.173 -86.0017 134.173 -79.652 130.256 -75.7356L79.0415 -24.5208C75.1251 -20.6044 68.7754 -20.6044 64.859 -24.5208L13.6443 -75.7356C9.72785 -79.652 9.72785 -86.0017 13.6443 -89.9181ZM12.8563 -74.9477C8.50477 -79.2992 8.50478 -86.3545 12.8563 -90.706L64.0711 -141.921C68.4226 -146.272 75.4779 -146.272 79.8295 -141.921L131.044 -90.706C135.396 -86.3545 135.396 -79.2992 131.044 -74.9476L79.8294 -23.7329C75.4779 -19.3814 68.4226 -19.3814 64.0711 -23.7329L12.8563 -74.9477ZM137.347 -68.6443L86.1328 -17.4296C82.2164 -13.5132 82.2164 -7.16345 86.1328 -3.24705L137.347 47.9677C141.264 51.8841 147.614 51.8841 151.53 47.9677L202.745 -3.24704C206.661 -7.16345 206.661 -13.5132 202.745 -17.4296L151.53 -68.6443C147.614 -72.5607 141.264 -72.5607 137.347 -68.6443ZM85.3448 -18.2175C80.9933 -13.866 80.9933 -6.81069 85.3448 -2.45913L136.56 48.7556C140.911 53.1072 147.966 53.1072 152.318 48.7556L203.533 -2.45912C207.884 -6.81067 207.884 -13.8659 203.533 -18.2175L152.318 -69.4322C147.966 -73.7838 140.911 -73.7838 136.56 -69.4322L85.3448 -18.2175ZM158.621 55.059L209.836 3.84429C213.752 -0.0721168 220.102 -0.072106 224.019 3.84429L275.233 55.059C279.15 58.9754 279.15 65.3252 275.233 69.2416L224.019 120.456C220.102 124.373 213.752 124.373 209.836 120.456L158.621 69.2416C154.705 65.3251 154.705 58.9754 158.621 55.059ZM157.833 70.0295C153.482 65.6779 153.482 58.6227 157.833 54.2711L209.048 3.05637C213.4 -1.29518 220.455 -1.29518 224.807 3.05637L276.021 54.2711C280.373 58.6227 280.373 65.6779 276.021 70.0295L224.807 121.244C220.455 125.596 213.4 125.596 209.048 121.244L157.833 70.0295Z" fill="#EFEBF2" fill-opacity="0.3"/>
</svg>
